<svg xmlns="http://www.w3.org/2000/svg" xmlns:xlink="http://www.w3.org/1999/xlink" width="148" zoomAndPan="magnify" viewBox="0 0 110.88 30.000001" height="40" preserveAspectRatio="xMidYMid meet" version="1.0"><defs><g/><clipPath id="62d22234bf"><path d="M 25 1 L 109.035156 1 L 109.035156 26 L 25 26 Z M 25 1 " clip-rule="nonzero"/></clipPath><clipPath id="6e8a70a13d"><path d="M 2.492188 1.394531 L 28.621094 1.394531 L 28.621094 27.523438 L 2.492188 27.523438 Z M 2.492188 1.394531 " clip-rule="nonzero"/></clipPath><clipPath id="86cd61d835"><path d="M 6.019531 5 L 27 5 L 27 25 L 6.019531 25 Z M 6.019531 5 " clip-rule="nonzero"/></clipPath><clipPath id="99f6ff4e51"><path d="M 10 4.035156 L 18 4.035156 L 18 13 L 10 13 Z M 10 4.035156 " clip-rule="nonzero"/></clipPath><clipPath id="405cbc2d1e"><path d="M 6.019531 18 L 11 18 L 11 22 L 6.019531 22 Z M 6.019531 18 " clip-rule="nonzero"/></clipPath><clipPath id="25140c5cbf"><path d="M 5.292969 5 L 26.339844 5 L 26.339844 24.675781 L 5.292969 24.675781 Z M 5.292969 5 " clip-rule="nonzero"/></clipPath><clipPath id="1b2617b923"><path d="M 9 3.628906 L 18 3.628906 L 18 13 L 9 13 Z M 9 3.628906 " clip-rule="nonzero"/></clipPath><clipPath id="ebcf85d1bc"><path d="M 5.292969 18 L 10 18 L 10 22 L 5.292969 22 Z M 5.292969 18 " clip-rule="nonzero"/></clipPath><clipPath id="88971653ff"><path d="M 13 22 L 16 22 L 16 24.675781 L 13 24.675781 Z M 13 22 " clip-rule="nonzero"/></clipPath></defs><g fill="#eb3f56" fill-opacity="1"><g transform="translate(30.427792, 21.861691)"><g><path d="M 4.921875 -9.390625 C 5.410156 -9.035156 5.878906 -8.671875 6.328125 -8.296875 C 6.773438 -7.921875 7.171875 -7.515625 7.515625 -7.078125 C 7.867188 -6.640625 8.144531 -6.144531 8.34375 -5.59375 C 8.550781 -5.050781 8.65625 -4.4375 8.65625 -3.75 C 8.65625 -3.207031 8.550781 -2.691406 8.34375 -2.203125 C 8.144531 -1.710938 7.859375 -1.285156 7.484375 -0.921875 C 7.109375 -0.554688 6.65625 -0.269531 6.125 -0.0625 C 5.601562 0.144531 5.015625 0.25 4.359375 0.25 C 3.578125 0.25 2.914062 0.128906 2.375 -0.109375 C 1.84375 -0.359375 1.410156 -0.6875 1.078125 -1.09375 C 0.742188 -1.5 0.5 -1.941406 0.34375 -2.421875 C 0.195312 -2.898438 0.125 -3.378906 0.125 -3.859375 L 0.125 -4.4375 C 0.125 -4.664062 0.148438 -4.820312 0.203125 -4.90625 C 0.253906 -5 0.363281 -5.046875 0.53125 -5.046875 L 3.34375 -5.046875 C 3.53125 -5.046875 3.644531 -5.007812 3.6875 -4.9375 C 3.738281 -4.875 3.765625 -4.742188 3.765625 -4.546875 L 3.765625 -4.078125 C 3.765625 -3.753906 3.820312 -3.535156 3.9375 -3.421875 C 4.0625 -3.304688 4.210938 -3.25 4.390625 -3.25 C 4.554688 -3.25 4.695312 -3.304688 4.8125 -3.421875 C 4.925781 -3.535156 4.984375 -3.71875 4.984375 -3.96875 C 4.984375 -4.28125 4.863281 -4.5625 4.625 -4.8125 C 4.394531 -5.0625 4.054688 -5.367188 3.609375 -5.734375 C 3.078125 -6.160156 2.613281 -6.535156 2.21875 -6.859375 C 1.832031 -7.191406 1.503906 -7.5 1.234375 -7.78125 C 0.960938 -8.070312 0.742188 -8.375 0.578125 -8.6875 C 0.421875 -9 0.304688 -9.347656 0.234375 -9.734375 C 0.160156 -10.117188 0.125 -10.582031 0.125 -11.125 C 0.125 -11.789062 0.242188 -12.375 0.484375 -12.875 C 0.734375 -13.375 1.054688 -13.789062 1.453125 -14.125 C 1.859375 -14.46875 2.300781 -14.722656 2.78125 -14.890625 C 3.269531 -15.066406 3.757812 -15.15625 4.25 -15.15625 C 5.039062 -15.15625 5.75 -14.988281 6.375 -14.65625 C 7.007812 -14.320312 7.503906 -13.835938 7.859375 -13.203125 C 8.222656 -12.566406 8.40625 -11.796875 8.40625 -10.890625 L 8.40625 -10.296875 C 8.40625 -10.128906 8.375 -10.015625 8.3125 -9.953125 C 8.257812 -9.890625 8.128906 -9.859375 7.921875 -9.859375 L 5.1875 -9.859375 C 5.03125 -9.859375 4.929688 -9.890625 4.890625 -9.953125 C 4.859375 -10.015625 4.84375 -10.132812 4.84375 -10.3125 L 4.84375 -10.875 C 4.84375 -11.40625 4.644531 -11.671875 4.25 -11.671875 C 4.0625 -11.671875 3.921875 -11.609375 3.828125 -11.484375 C 3.742188 -11.359375 3.703125 -11.203125 3.703125 -11.015625 C 3.703125 -10.804688 3.734375 -10.625 3.796875 -10.46875 C 3.859375 -10.3125 3.976562 -10.148438 4.15625 -9.984375 C 4.332031 -9.828125 4.585938 -9.628906 4.921875 -9.390625 Z M 4.921875 -9.390625 "/></g></g></g><g fill="#eb3f56" fill-opacity="1"><g transform="translate(39.742494, 21.861691)"><g><path d="M 5.125 -4.109375 L 5.125 -5.453125 C 5.125 -5.617188 5.066406 -5.765625 4.953125 -5.890625 C 4.847656 -6.023438 4.6875 -6.09375 4.46875 -6.09375 L 3.984375 -6.09375 L 3.984375 -3.484375 L 4.5 -3.484375 C 4.664062 -3.484375 4.8125 -3.546875 4.9375 -3.671875 C 5.0625 -3.796875 5.125 -3.941406 5.125 -4.109375 Z M 5.109375 -9.859375 L 5.109375 -10.703125 C 5.109375 -10.960938 5.039062 -11.144531 4.90625 -11.25 C 4.769531 -11.351562 4.617188 -11.40625 4.453125 -11.40625 L 3.984375 -11.40625 L 3.984375 -9.171875 L 4.453125 -9.171875 C 4.628906 -9.171875 4.78125 -9.21875 4.90625 -9.3125 C 5.039062 -9.40625 5.109375 -9.585938 5.109375 -9.859375 Z M 8.78125 -10.9375 L 8.78125 -10.0625 C 8.78125 -9.675781 8.695312 -9.316406 8.53125 -8.984375 C 8.375 -8.648438 8.179688 -8.375 7.953125 -8.15625 C 7.734375 -7.9375 7.53125 -7.800781 7.34375 -7.75 C 7.476562 -7.695312 7.632812 -7.597656 7.8125 -7.453125 C 8 -7.316406 8.179688 -7.132812 8.359375 -6.90625 C 8.546875 -6.6875 8.695312 -6.421875 8.8125 -6.109375 C 8.9375 -5.796875 9 -5.445312 9 -5.0625 L 9 -3.6875 C 9 -3.15625 8.882812 -2.664062 8.65625 -2.21875 C 8.425781 -1.769531 8.117188 -1.378906 7.734375 -1.046875 C 7.347656 -0.710938 6.914062 -0.453125 6.4375 -0.265625 C 5.96875 -0.0859375 5.484375 0 4.984375 0 L 0.8125 0 C 0.539062 0 0.40625 -0.144531 0.40625 -0.4375 L 0.40625 -14.46875 C 0.40625 -14.769531 0.539062 -14.921875 0.8125 -14.921875 L 4.671875 -14.921875 C 5.296875 -14.921875 5.859375 -14.8125 6.359375 -14.59375 C 6.859375 -14.382812 7.289062 -14.097656 7.65625 -13.734375 C 8.019531 -13.367188 8.296875 -12.945312 8.484375 -12.46875 C 8.679688 -11.988281 8.78125 -11.476562 8.78125 -10.9375 Z M 8.78125 -10.9375 "/></g></g></g><g fill="#eb3f56" fill-opacity="1"><g transform="translate(49.326316, 21.861691)"><g><path d="M 4.25 -10.9375 L 4.25 -6.234375 L 5.296875 -6.234375 L 5.296875 -10.9375 C 5.296875 -11.125 5.257812 -11.289062 5.1875 -11.4375 C 5.113281 -11.59375 4.972656 -11.671875 4.765625 -11.671875 C 4.554688 -11.671875 4.414062 -11.59375 4.34375 -11.4375 C 4.28125 -11.289062 4.25 -11.125 4.25 -10.9375 Z M 9.171875 -11.171875 L 9.171875 -0.453125 C 9.171875 -0.335938 9.132812 -0.234375 9.0625 -0.140625 C 9 -0.046875 8.910156 0 8.796875 0 L 5.671875 0 C 5.554688 0 5.460938 -0.046875 5.390625 -0.140625 C 5.328125 -0.234375 5.296875 -0.335938 5.296875 -0.453125 L 5.296875 -2.859375 L 4.25 -2.859375 L 4.25 -0.453125 C 4.25 -0.328125 4.222656 -0.21875 4.171875 -0.125 C 4.128906 -0.0390625 4.039062 0 3.90625 0 L 0.65625 0 C 0.570312 0 0.5 -0.046875 0.4375 -0.140625 C 0.382812 -0.234375 0.359375 -0.335938 0.359375 -0.453125 L 0.359375 -11.171875 C 0.359375 -11.722656 0.476562 -12.238281 0.71875 -12.71875 C 0.957031 -13.207031 1.28125 -13.632812 1.6875 -14 C 2.101562 -14.363281 2.570312 -14.648438 3.09375 -14.859375 C 3.625 -15.066406 4.179688 -15.171875 4.765625 -15.171875 C 5.347656 -15.171875 5.90625 -15.066406 6.4375 -14.859375 C 6.96875 -14.648438 7.4375 -14.363281 7.84375 -14 C 8.25 -13.632812 8.570312 -13.207031 8.8125 -12.71875 C 9.050781 -12.238281 9.171875 -11.722656 9.171875 -11.171875 Z M 9.171875 -11.171875 "/></g></g></g><g fill="#eb3f56" fill-opacity="1"><g transform="translate(59.426852, 21.861691)"><g><path d="M 6.703125 -5.921875 L 6.703125 -0.4375 C 6.703125 -0.144531 6.585938 0 6.359375 0 L 3.171875 0 C 2.941406 0 2.828125 -0.144531 2.828125 -0.4375 L 2.828125 -5.9375 C 2.359375 -6.132812 1.9375 -6.398438 1.5625 -6.734375 C 1.1875 -7.078125 0.890625 -7.484375 0.671875 -7.953125 C 0.460938 -8.429688 0.359375 -8.96875 0.359375 -9.5625 L 0.359375 -14.6875 C 0.359375 -14.84375 0.429688 -14.921875 0.578125 -14.921875 L 3.96875 -14.921875 C 4.039062 -14.921875 4.101562 -14.898438 4.15625 -14.859375 C 4.21875 -14.828125 4.25 -14.78125 4.25 -14.71875 L 4.25 -9.796875 C 4.25 -9.609375 4.273438 -9.441406 4.328125 -9.296875 C 4.390625 -9.148438 4.535156 -9.078125 4.765625 -9.078125 C 4.984375 -9.078125 5.125 -9.132812 5.1875 -9.25 C 5.257812 -9.375 5.296875 -9.523438 5.296875 -9.703125 L 5.296875 -14.6875 C 5.296875 -14.84375 5.367188 -14.921875 5.515625 -14.921875 L 8.9375 -14.921875 C 9 -14.921875 9.050781 -14.90625 9.09375 -14.875 C 9.144531 -14.851562 9.171875 -14.789062 9.171875 -14.6875 L 9.171875 -9.5625 C 9.171875 -8.957031 9.0625 -8.410156 8.84375 -7.921875 C 8.632812 -7.441406 8.34375 -7.035156 7.96875 -6.703125 C 7.601562 -6.367188 7.179688 -6.109375 6.703125 -5.921875 Z M 6.703125 -5.921875 "/></g></g></g><g fill="#eb3f56" fill-opacity="1"><g transform="translate(69.527386, 21.861691)"><g><path d="M 4.453125 -7.765625 L 4.59375 -5.875 L 4.734375 -7.765625 L 5.421875 -14.5 C 5.441406 -14.644531 5.5 -14.75 5.59375 -14.8125 C 5.6875 -14.882812 5.804688 -14.921875 5.953125 -14.921875 L 9.03125 -14.921875 C 9.21875 -14.921875 9.28125 -14.78125 9.21875 -14.5 L 6.3125 -0.4375 C 6.28125 -0.289062 6.222656 -0.179688 6.140625 -0.109375 C 6.066406 -0.0351562 5.957031 0 5.8125 0 L 3.375 0 C 3.238281 0 3.128906 -0.0351562 3.046875 -0.109375 C 2.972656 -0.179688 2.914062 -0.289062 2.875 -0.4375 L -0.03125 -14.484375 C -0.09375 -14.773438 -0.03125 -14.921875 0.15625 -14.921875 L 3.25 -14.921875 C 3.382812 -14.921875 3.5 -14.882812 3.59375 -14.8125 C 3.6875 -14.75 3.742188 -14.644531 3.765625 -14.5 Z M 4.453125 -7.765625 "/></g></g></g><g fill="#eb3f56" fill-opacity="1"><g transform="translate(79.294209, 21.861691)"><g><path d="M 4.28125 -3.484375 L 8.0625 -3.484375 C 8.289062 -3.484375 8.40625 -3.34375 8.40625 -3.0625 L 8.40625 -0.421875 C 8.40625 -0.140625 8.289062 0 8.0625 0 L 0.8125 0 C 0.539062 0 0.40625 -0.144531 0.40625 -0.4375 L 0.40625 -14.46875 C 0.40625 -14.769531 0.539062 -14.921875 0.8125 -14.921875 L 7.984375 -14.921875 C 8.191406 -14.921875 8.296875 -14.769531 8.296875 -14.46875 L 8.296875 -11.84375 C 8.296875 -11.550781 8.191406 -11.40625 7.984375 -11.40625 L 4.28125 -11.40625 L 4.28125 -9.203125 L 7.1875 -9.203125 C 7.300781 -9.203125 7.390625 -9.164062 7.453125 -9.09375 C 7.523438 -9.03125 7.5625 -8.921875 7.5625 -8.765625 L 7.5625 -6.15625 C 7.5625 -5.863281 7.4375 -5.71875 7.1875 -5.71875 L 4.28125 -5.71875 Z M 4.28125 -3.484375 "/></g></g></g><g fill="#eb3f56" fill-opacity="1"><g transform="translate(88.329024, 21.861691)"><g><path d="M 4.96875 -11.640625 L 5.5625 -14.46875 C 5.625 -14.769531 5.789062 -14.921875 6.0625 -14.921875 L 9.34375 -14.921875 C 9.457031 -14.921875 9.539062 -14.867188 9.59375 -14.765625 C 9.644531 -14.671875 9.648438 -14.570312 9.609375 -14.46875 L 6.84375 -7.75 L 9.6875 -0.4375 C 9.738281 -0.300781 9.734375 -0.191406 9.671875 -0.109375 C 9.617188 -0.0351562 9.539062 0 9.4375 0 L 6.15625 0 C 6.03125 0 5.925781 -0.0234375 5.84375 -0.078125 C 5.769531 -0.128906 5.703125 -0.25 5.640625 -0.4375 L 4.984375 -3.171875 L 4.875 -3.75 L 4.765625 -3.171875 L 4.109375 -0.4375 C 4.066406 -0.25 4.003906 -0.128906 3.921875 -0.078125 C 3.847656 -0.0234375 3.738281 0 3.59375 0 L 0.328125 0 C 0.210938 0 0.128906 -0.0351562 0.078125 -0.109375 C 0.0234375 -0.191406 0.0234375 -0.300781 0.078125 -0.4375 L 2.921875 -7.75 L 0.15625 -14.46875 C 0.113281 -14.570312 0.113281 -14.671875 0.15625 -14.765625 C 0.207031 -14.867188 0.300781 -14.921875 0.4375 -14.921875 L 3.6875 -14.921875 C 3.96875 -14.921875 4.144531 -14.769531 4.21875 -14.46875 L 4.796875 -11.640625 L 4.875 -11.078125 Z M 4.96875 -11.640625 "/></g></g></g><g fill="#eb3f56" fill-opacity="1"><g transform="translate(98.655619, 21.861691)"><g><path d="M 4.28125 -3.484375 L 8.0625 -3.484375 C 8.289062 -3.484375 8.40625 -3.34375 8.40625 -3.0625 L 8.40625 -0.421875 C 8.40625 -0.140625 8.289062 0 8.0625 0 L 0.8125 0 C 0.539062 0 0.40625 -0.144531 0.40625 -0.4375 L 0.40625 -14.46875 C 0.40625 -14.769531 0.539062 -14.921875 0.8125 -14.921875 L 7.984375 -14.921875 C 8.191406 -14.921875 8.296875 -14.769531 8.296875 -14.46875 L 8.296875 -11.84375 C 8.296875 -11.550781 8.191406 -11.40625 7.984375 -11.40625 L 4.28125 -11.40625 L 4.28125 -9.203125 L 7.1875 -9.203125 C 7.300781 -9.203125 7.390625 -9.164062 7.453125 -9.09375 C 7.523438 -9.03125 7.5625 -8.921875 7.5625 -8.765625 L 7.5625 -6.15625 C 7.5625 -5.863281 7.4375 -5.71875 7.1875 -5.71875 L 4.28125 -5.71875 Z M 4.28125 -3.484375 "/></g></g></g><g clip-path="url(#62d22234bf)"><path stroke-linecap="butt" transform="matrix(0.725806, 0, 0, 0.725806, 29.745225, -1.320875)" fill="none" stroke-linejoin="miter" d="M 6.782447 18.073345 C 7.45519 18.55772 8.101023 19.058241 8.719947 19.574907 C 9.333489 20.086192 9.887829 20.645914 10.366822 21.248692 C 10.845815 21.856852 11.222551 22.529595 11.502412 23.283067 C 11.776891 24.036539 11.916822 24.886887 11.916822 25.834109 C 11.916822 26.587581 11.776891 27.297998 11.502412 27.965359 C 11.222551 28.63272 10.829669 29.219352 10.313002 29.725255 C 9.796336 30.225776 9.177412 30.624039 8.45085 30.909282 C 7.724287 31.199907 6.906232 31.339838 5.996683 31.339838 C 4.925676 31.339838 4.021509 31.172998 3.278801 30.839317 C 2.536093 30.500255 1.938697 30.053553 1.481232 29.493831 C 1.029148 28.934109 0.695468 28.325949 0.490954 27.658588 C 0.281058 26.996609 0.178801 26.340012 0.178801 25.688796 L 0.178801 24.886887 C 0.178801 24.569352 0.211093 24.354074 0.281058 24.235671 C 0.351023 24.117269 0.5071 24.058067 0.743905 24.058067 L 4.597377 24.058067 C 4.855711 24.058067 5.017169 24.101123 5.081752 24.197998 C 5.146336 24.289491 5.178627 24.472477 5.178627 24.736192 L 5.178627 25.376644 C 5.178627 25.823345 5.264738 26.124734 5.431579 26.28081 C 5.598419 26.436887 5.808315 26.517616 6.055884 26.517616 C 6.281926 26.517616 6.470294 26.436887 6.62637 26.28081 C 6.777065 26.124734 6.857794 25.877164 6.857794 25.538102 C 6.857794 25.102164 6.696336 24.714664 6.378801 24.364838 C 6.066648 24.020394 5.593037 23.600602 4.968732 23.105463 C 4.236787 22.513449 3.601718 21.9914 3.063523 21.539317 C 2.525329 21.092616 2.067863 20.667442 1.696509 20.269178 C 1.330537 19.876296 1.029148 19.461887 0.808488 19.031331 C 0.587829 18.600775 0.42637 18.121782 0.324113 17.583588 C 0.227238 17.050775 0.178801 16.415706 0.178801 15.672998 C 0.178801 14.763449 0.345641 13.961539 0.684704 13.267268 C 1.018384 12.572998 1.465086 11.99713 2.019426 11.5289 C 2.573766 11.066053 3.181926 10.716227 3.849287 10.479421 C 4.516648 10.242616 5.184009 10.124213 5.845988 10.124213 C 6.943905 10.124213 7.928801 10.350255 8.789912 10.813102 C 9.656405 11.270567 10.339912 11.937928 10.840433 12.815185 C 11.340954 13.692442 11.588523 14.752685 11.588523 15.995914 L 11.588523 16.81397 C 11.588523 17.050775 11.55085 17.212234 11.47012 17.298345 C 11.389391 17.379074 11.206405 17.42213 10.921162 17.42213 L 7.137655 17.42213 C 6.927759 17.42213 6.798593 17.379074 6.744773 17.298345 C 6.690954 17.212234 6.664044 17.045393 6.664044 16.797824 L 6.664044 16.028206 C 6.664044 15.296262 6.394947 14.930289 5.862134 14.930289 C 5.603801 14.930289 5.415433 15.011018 5.291648 15.183241 C 5.167863 15.350081 5.10328 15.559977 5.10328 15.81831 C 5.10328 16.114317 5.146336 16.37265 5.232447 16.582546 C 5.313176 16.797824 5.480016 17.013102 5.722204 17.239143 C 5.964391 17.459803 6.314218 17.739664 6.782447 18.073345 Z M 19.898246 25.333588 L 19.898246 23.492963 C 19.898246 23.256157 19.822898 23.046262 19.666822 22.874039 C 19.516127 22.701817 19.290086 22.615706 18.994079 22.615706 L 18.321336 22.615706 L 18.321336 26.194699 L 19.020989 26.194699 C 19.257794 26.194699 19.462308 26.108588 19.63453 25.941748 C 19.812134 25.769525 19.898246 25.570394 19.898246 25.333588 Z M 19.865954 17.42213 L 19.865954 16.248866 C 19.865954 15.893657 19.774461 15.646088 19.591475 15.500775 C 19.408489 15.355463 19.203975 15.285498 18.977933 15.285498 L 18.321336 15.285498 L 18.321336 18.374734 L 18.977933 18.374734 C 19.214739 18.374734 19.424634 18.31015 19.602239 18.180984 C 19.779843 18.051817 19.865954 17.798866 19.865954 17.42213 Z M 24.924982 15.936713 L 24.924982 17.142268 C 24.924982 17.675081 24.817343 18.17022 24.591301 18.622303 C 24.370641 19.079768 24.106926 19.456505 23.800155 19.757893 C 23.493384 20.059282 23.213523 20.253032 22.95519 20.32838 C 23.132794 20.398345 23.348072 20.532893 23.601023 20.726643 C 23.853975 20.915012 24.101544 21.167963 24.354496 21.480116 C 24.607447 21.792269 24.817343 22.163623 24.984183 22.588796 C 25.156405 23.01397 25.237134 23.492963 25.237134 24.025775 L 25.237134 25.925602 C 25.237134 26.646782 25.081058 27.319525 24.763523 27.938449 C 24.445989 28.551991 24.026197 29.095567 23.493384 29.553032 C 22.965954 30.01588 22.37394 30.371088 21.711961 30.624039 C 21.055364 30.871609 20.388002 31.000776 19.704496 31.000776 L 13.961961 31.000776 C 13.585225 31.000776 13.396857 30.796262 13.396857 30.392616 L 13.396857 11.071435 C 13.396857 10.657025 13.585225 10.44713 13.961961 10.44713 L 19.257794 10.44713 C 20.118905 10.44713 20.893905 10.592442 21.588176 10.888449 C 22.282447 11.179074 22.874461 11.577338 23.374982 12.077859 C 23.875503 12.583761 24.257621 13.170393 24.526718 13.832373 C 24.795815 14.494352 24.924982 15.194005 24.924982 15.936713 Z M 31.883836 15.925949 L 31.883836 22.421956 L 33.326197 22.421956 L 33.326197 15.925949 C 33.326197 15.67838 33.27776 15.446956 33.180885 15.242442 C 33.089391 15.032546 32.901023 14.930289 32.610398 14.930289 C 32.325155 14.930289 32.131405 15.032546 32.03453 15.242442 C 31.932273 15.446956 31.883836 15.67838 31.883836 15.925949 Z M 38.665086 15.613796 L 38.665086 30.37647 C 38.665086 30.532546 38.62203 30.677859 38.530537 30.807026 C 38.444426 30.936192 38.31526 31.000776 38.148419 31.000776 L 33.842864 31.000776 C 33.692169 31.000776 33.573766 30.936192 33.47151 30.807026 C 33.374635 30.677859 33.326197 30.532546 33.326197 30.37647 L 33.326197 27.066574 L 31.883836 27.066574 L 31.883836 30.37647 C 31.883836 30.54331 31.856926 30.688623 31.797725 30.812407 C 31.738523 30.936192 31.609357 31.000776 31.410225 31.000776 L 26.943211 31.000776 C 26.835572 31.000776 26.738697 30.936192 26.66335 30.807026 C 26.582621 30.677859 26.544947 30.532546 26.544947 30.37647 L 26.544947 15.613796 C 26.544947 14.84956 26.706405 14.133761 27.034704 13.4664 C 27.357621 12.799039 27.804322 12.212407 28.369426 11.711886 C 28.929148 11.205984 29.574982 10.813102 30.301544 10.527859 C 31.033489 10.247998 31.797725 10.108067 32.594253 10.108067 C 33.396162 10.108067 34.16578 10.247998 34.897725 10.527859 C 35.629669 10.813102 36.275503 11.205984 36.840607 11.711886 C 37.405711 12.212407 37.84703 12.799039 38.175329 13.4664 C 38.503628 14.133761 38.665086 14.84956 38.665086 15.613796 Z M 49.181406 22.836366 L 49.181406 30.392616 C 49.181406 30.796262 49.025329 31.000776 48.707794 31.000776 L 44.316128 31.000776 C 44.009357 31.000776 43.858662 30.796262 43.858662 30.392616 L 43.858662 22.825602 C 43.202065 22.556505 42.620815 22.190532 42.104149 21.716921 C 41.592864 21.248692 41.189218 20.68897 40.898593 20.032373 C 40.602586 19.381157 40.457273 18.643831 40.457273 17.825775 L 40.457273 10.759282 C 40.457273 10.549386 40.55953 10.44713 40.75328 10.44713 L 45.414044 10.44713 C 45.521683 10.44713 45.613176 10.474039 45.688524 10.522477 C 45.763871 10.570914 45.801544 10.64088 45.801544 10.732373 L 45.801544 17.513623 C 45.801544 17.761192 45.8446 17.987234 45.925329 18.191748 C 46.01144 18.401643 46.20519 18.5039 46.511961 18.5039 C 46.818732 18.5039 47.017864 18.423171 47.103975 18.250949 C 47.195468 18.084109 47.238524 17.879595 47.238524 17.632025 L 47.238524 10.775428 C 47.238524 10.554768 47.346162 10.44713 47.550676 10.44713 L 52.270642 10.44713 C 52.351371 10.44713 52.421336 10.463275 52.485919 10.500949 C 52.550503 10.533241 52.582794 10.619352 52.582794 10.759282 L 52.582794 17.825775 C 52.582794 18.665359 52.437482 19.413449 52.146857 20.08081 C 51.85085 20.742789 51.452586 21.302512 50.941301 21.765359 C 50.435399 22.222824 49.848767 22.583414 49.181406 22.836366 Z M 59.999114 20.30147 L 60.192864 22.911713 L 60.397378 20.30147 L 61.349982 11.02838 C 61.37151 10.829248 61.446857 10.683935 61.581406 10.58706 C 61.710572 10.495567 61.872031 10.44713 62.060399 10.44713 L 66.306753 10.44713 C 66.570468 10.44713 66.661961 10.64088 66.570468 11.02838 L 62.566301 30.392616 C 62.517864 30.591748 62.442517 30.742442 62.334878 30.844699 C 62.232621 30.946956 62.081926 31.000776 61.882795 31.000776 L 58.513697 31.000776 C 58.325329 31.000776 58.180017 30.946956 58.072378 30.844699 C 57.959357 30.742442 57.88401 30.591748 57.83019 30.392616 L 53.826024 11.055289 C 53.734531 10.651643 53.826024 10.44713 54.095121 10.44713 L 58.336093 10.44713 C 58.535225 10.44713 58.696683 10.495567 58.82585 10.58706 C 58.955017 10.683935 59.030364 10.829248 59.051892 11.02838 Z M 73.233315 26.194699 L 78.443038 26.194699 C 78.749809 26.194699 78.900503 26.383067 78.900503 26.770567 L 78.900503 30.419526 C 78.900503 30.807026 78.749809 31.000776 78.443038 31.000776 L 68.454149 31.000776 C 68.077413 31.000776 67.889045 30.796262 67.889045 30.392616 L 67.889045 11.071435 C 67.889045 10.657025 68.077413 10.44713 68.454149 10.44713 L 78.324635 10.44713 C 78.609878 10.44713 78.75519 10.657025 78.75519 11.071435 L 78.75519 14.677338 C 78.75519 15.080984 78.609878 15.285498 78.324635 15.285498 L 73.233315 15.285498 L 73.233315 18.31015 L 77.226718 18.31015 C 77.382795 18.31015 77.506579 18.36397 77.603454 18.460845 C 77.694947 18.55772 77.743385 18.713796 77.743385 18.923692 L 77.743385 22.529595 C 77.743385 22.922477 77.571163 23.121609 77.226718 23.121609 L 73.233315 23.121609 Z M 86.618211 14.957199 L 87.430885 11.071435 C 87.522378 10.657025 87.753802 10.44713 88.130538 10.44713 L 92.640607 10.44713 C 92.807448 10.44713 92.92585 10.517095 92.995816 10.646261 C 93.065781 10.78081 93.071163 10.920741 93.011961 11.071435 L 89.196163 20.317616 L 93.114218 30.392616 C 93.194948 30.580984 93.194948 30.726296 93.114218 30.839317 C 93.033489 30.946956 92.920468 31.000776 92.775156 31.000776 L 88.265086 31.000776 C 88.087482 31.000776 87.94217 30.963102 87.834531 30.898519 C 87.72151 30.828553 87.630017 30.656331 87.549288 30.392616 L 86.645121 26.619873 L 86.483663 25.834109 L 86.349114 26.636019 L 85.444947 30.392616 C 85.374982 30.656331 85.288871 30.828553 85.181232 30.898519 C 85.078975 30.963102 84.928281 31.000776 84.729149 31.000776 L 80.235225 31.000776 C 80.079149 31.000776 79.960746 30.946956 79.885399 30.839317 C 79.810052 30.726296 79.810052 30.580984 79.880017 30.392616 L 83.798072 20.32838 L 79.982274 11.071435 C 79.923072 10.920741 79.928454 10.78081 79.99842 10.646261 C 80.068385 10.517095 80.19217 10.44713 80.369774 10.44713 L 84.863697 10.44713 C 85.251197 10.44713 85.488003 10.657025 85.579496 11.071435 L 86.376024 14.957199 L 86.494427 15.742963 Z M 99.906232 26.194699 L 105.115955 26.194699 C 105.422725 26.194699 105.578802 26.383067 105.578802 26.770567 L 105.578802 30.419526 C 105.578802 30.807026 105.422725 31.000776 105.115955 31.000776 L 95.132448 31.000776 C 94.755711 31.000776 94.567343 30.796262 94.567343 30.392616 L 94.567343 11.071435 C 94.567343 10.657025 94.755711 10.44713 95.132448 10.44713 L 104.997552 10.44713 C 105.282795 10.44713 105.428107 10.657025 105.428107 11.071435 L 105.428107 14.677338 C 105.428107 15.080984 105.282795 15.285498 104.997552 15.285498 L 99.906232 15.285498 L 99.906232 18.31015 L 103.899635 18.31015 C 104.061093 18.31015 104.184878 18.36397 104.276371 18.460845 C 104.373246 18.55772 104.421684 18.713796 104.421684 18.923692 L 104.421684 22.529595 C 104.421684 22.922477 104.24408 23.121609 103.899635 23.121609 L 99.906232 23.121609 Z M 99.906232 26.194699 " stroke="#122342" stroke-width="1.044969" stroke-opacity="1" stroke-miterlimit="4"/></g><g fill="#eb3f56" fill-opacity="1"><g transform="translate(107.692156, 21.861691)"><g/></g></g><g clip-path="url(#6e8a70a13d)"><path fill="#d9d9d9" d="M 28.722656 14.511719 C 28.722656 15.371094 28.640625 16.226562 28.472656 17.070312 C 28.304688 17.914062 28.054688 18.734375 27.726562 19.53125 C 27.394531 20.328125 26.992188 21.082031 26.511719 21.796875 C 26.035156 22.515625 25.492188 23.175781 24.882812 23.785156 C 24.273438 24.394531 23.609375 24.9375 22.894531 25.417969 C 22.179688 25.894531 21.421875 26.300781 20.628906 26.628906 C 19.832031 26.957031 19.011719 27.207031 18.167969 27.375 C 17.324219 27.542969 16.46875 27.628906 15.609375 27.628906 C 14.746094 27.628906 13.894531 27.542969 13.050781 27.375 C 12.203125 27.207031 11.386719 26.957031 10.589844 26.628906 C 9.792969 26.300781 9.039062 25.894531 8.320312 25.417969 C 7.605469 24.9375 6.941406 24.394531 6.335938 23.785156 C 5.726562 23.175781 5.183594 22.515625 4.703125 21.796875 C 4.226562 21.082031 3.820312 20.328125 3.492188 19.53125 C 3.160156 18.734375 2.914062 17.914062 2.746094 17.070312 C 2.578125 16.226562 2.492188 15.371094 2.492188 14.511719 C 2.492188 13.652344 2.578125 12.796875 2.746094 11.953125 C 2.914062 11.109375 3.160156 10.289062 3.492188 9.492188 C 3.820312 8.695312 4.226562 7.941406 4.703125 7.226562 C 5.183594 6.507812 5.726562 5.847656 6.335938 5.238281 C 6.941406 4.628906 7.605469 4.085938 8.320312 3.605469 C 9.039062 3.128906 9.792969 2.722656 10.589844 2.394531 C 11.386719 2.066406 12.203125 1.816406 13.050781 1.648438 C 13.894531 1.480469 14.746094 1.394531 15.609375 1.394531 C 16.46875 1.394531 17.324219 1.480469 18.167969 1.648438 C 19.011719 1.816406 19.832031 2.066406 20.628906 2.394531 C 21.421875 2.722656 22.179688 3.128906 22.894531 3.605469 C 23.609375 4.085938 24.273438 4.628906 24.882812 5.238281 C 25.492188 5.847656 26.035156 6.507812 26.511719 7.226562 C 26.992188 7.941406 27.394531 8.695312 27.726562 9.492188 C 28.054688 10.289062 28.304688 11.109375 28.472656 11.953125 C 28.640625 12.796875 28.722656 13.652344 28.722656 14.511719 Z M 28.722656 14.511719 " fill-opacity="1" fill-rule="nonzero"/></g><path fill="#ffffff" d="M 15.609375 2.503906 C 18.933594 2.503906 21.941406 3.847656 24.117188 6.023438 C 26.292969 8.199219 27.636719 11.207031 27.636719 14.511719 C 27.636719 17.839844 26.292969 20.84375 24.117188 23.019531 C 21.941406 25.195312 18.933594 26.539062 15.609375 26.539062 C 12.304688 26.539062 9.296875 25.195312 7.121094 23.019531 C 4.945312 20.84375 3.601562 17.839844 3.601562 14.511719 C 3.601562 11.207031 4.945312 8.199219 7.121094 6.023438 C 9.296875 3.847656 12.304688 2.503906 15.609375 2.503906 Z M 23.902344 6.214844 C 21.792969 4.105469 18.851562 2.78125 15.609375 2.78125 C 12.367188 2.78125 9.445312 4.105469 7.3125 6.214844 C 5.203125 8.347656 3.878906 11.269531 3.878906 14.511719 C 3.878906 17.753906 5.203125 20.695312 7.3125 22.808594 C 9.445312 24.941406 12.367188 26.242188 15.609375 26.242188 C 18.851562 26.242188 21.792969 24.941406 23.902344 22.808594 C 26.035156 20.695312 27.335938 17.753906 27.335938 14.511719 C 27.335938 11.269531 26.035156 8.347656 23.902344 6.214844 Z M 23.902344 6.214844 " fill-opacity="1" fill-rule="nonzero"/><g clip-path="url(#86cd61d835)"><path fill="#eb3f56" d="M 8.136719 19.34375 C 8.289062 19.550781 8.582031 19.59375 8.789062 19.441406 C 9.019531 19.269531 9.289062 19.179688 9.574219 19.179688 C 9.996094 19.179688 10.382812 19.375 10.632812 19.710938 C 11.066406 20.296875 10.945312 21.125 10.359375 21.558594 C 10.152344 21.710938 10.109375 22.003906 10.265625 22.207031 L 12.074219 24.644531 C 12.164062 24.769531 12.304688 24.835938 12.449219 24.835938 C 12.542969 24.835938 12.640625 24.804688 12.726562 24.742188 L 26.804688 14.289062 C 27.011719 14.136719 27.054688 13.84375 26.902344 13.640625 L 25.089844 11.203125 C 25.019531 11.101562 24.90625 11.035156 24.785156 11.019531 C 24.664062 11 24.539062 11.03125 24.441406 11.105469 C 24.210938 11.273438 23.941406 11.363281 23.65625 11.363281 C 23.234375 11.363281 22.847656 11.171875 22.597656 10.832031 C 22.386719 10.550781 22.300781 10.203125 22.351562 9.855469 C 22.402344 9.503906 22.585938 9.199219 22.867188 8.988281 C 22.96875 8.914062 23.035156 8.804688 23.050781 8.683594 C 23.070312 8.558594 23.039062 8.4375 22.964844 8.335938 L 21.15625 5.898438 C 21.003906 5.691406 20.710938 5.648438 20.503906 5.804688 L 6.425781 16.253906 C 6.324219 16.328125 6.257812 16.4375 6.242188 16.5625 C 6.222656 16.683594 6.253906 16.808594 6.328125 16.90625 Z M 17.214844 9.402344 L 17.355469 9.589844 C 17.421875 9.683594 17.527344 9.730469 17.636719 9.730469 C 17.707031 9.730469 17.78125 9.710938 17.84375 9.664062 C 18 9.546875 18.03125 9.328125 17.914062 9.175781 L 17.777344 8.988281 L 20.683594 6.828125 L 21.96875 8.554688 C 21.679688 8.878906 21.492188 9.28125 21.429688 9.71875 C 21.339844 10.3125 21.488281 10.90625 21.847656 11.386719 C 22.269531 11.957031 22.945312 12.296875 23.65625 12.296875 C 23.984375 12.296875 24.300781 12.226562 24.59375 12.09375 L 25.875 13.820312 L 22.964844 15.980469 L 22.828125 15.792969 C 22.714844 15.636719 22.496094 15.605469 22.339844 15.71875 C 22.183594 15.835938 22.152344 16.054688 22.265625 16.207031 L 22.40625 16.394531 L 12.542969 23.714844 L 11.261719 21.988281 C 11.949219 21.207031 12.023438 20.027344 11.378906 19.15625 C 10.957031 18.589844 10.28125 18.25 9.574219 18.25 C 9.246094 18.25 8.929688 18.320312 8.636719 18.453125 L 7.355469 16.726562 Z M 17.214844 9.402344 " fill-opacity="1" fill-rule="nonzero"/></g><path fill="#eb3f56" d="M 21.285156 14.886719 C 21.351562 14.976562 21.457031 15.027344 21.566406 15.027344 C 21.636719 15.027344 21.710938 15.003906 21.773438 14.957031 C 21.929688 14.84375 21.960938 14.625 21.84375 14.46875 L 20.863281 13.144531 C 20.75 12.988281 20.53125 12.957031 20.375 13.074219 C 20.21875 13.1875 20.1875 13.40625 20.300781 13.5625 Z M 21.285156 14.886719 " fill-opacity="1" fill-rule="nonzero"/><path fill="#eb3f56" d="M 19.320312 12.238281 C 19.386719 12.332031 19.492188 12.378906 19.601562 12.378906 C 19.671875 12.378906 19.746094 12.355469 19.808594 12.308594 C 19.964844 12.195312 19.996094 11.976562 19.878906 11.820312 L 18.898438 10.5 C 18.785156 10.34375 18.566406 10.3125 18.410156 10.425781 C 18.253906 10.539062 18.222656 10.757812 18.335938 10.914062 Z M 19.320312 12.238281 " fill-opacity="1" fill-rule="nonzero"/><g clip-path="url(#99f6ff4e51)"><path fill="#eb3f56" d="M 10.28125 12.8125 C 10.347656 12.851562 10.421875 12.867188 10.496094 12.867188 C 10.664062 12.867188 10.824219 12.777344 10.910156 12.617188 L 12.804688 8.976562 L 12.960938 9.058594 C 13.015625 9.085938 13.070312 9.097656 13.125 9.097656 C 13.25 9.097656 13.371094 9.027344 13.433594 8.910156 C 13.523438 8.738281 13.457031 8.527344 13.285156 8.4375 L 13.128906 8.355469 L 14.804688 5.144531 L 16.710938 6.140625 C 16.59375 6.5625 16.601562 7.007812 16.738281 7.429688 C 16.816406 7.675781 17.078125 7.8125 17.324219 7.734375 C 17.566406 7.65625 17.703125 7.390625 17.625 7.148438 C 17.515625 6.808594 17.546875 6.449219 17.710938 6.136719 C 17.832031 5.90625 17.742188 5.625 17.511719 5.507812 L 14.820312 4.105469 C 14.710938 4.046875 14.585938 4.035156 14.46875 4.074219 C 14.347656 4.109375 14.25 4.191406 14.195312 4.300781 L 10.082031 12.1875 C 9.964844 12.414062 10.050781 12.695312 10.28125 12.8125 Z M 10.28125 12.8125 " fill-opacity="1" fill-rule="nonzero"/></g><g clip-path="url(#405cbc2d1e)"><path fill="#eb3f56" d="M 6.28125 20.476562 L 8.972656 21.882812 C 9.042969 21.917969 9.117188 21.933594 9.191406 21.933594 C 9.238281 21.933594 9.285156 21.925781 9.328125 21.914062 C 9.449219 21.875 9.546875 21.792969 9.601562 21.683594 C 9.75 21.398438 9.996094 21.179688 10.292969 21.066406 C 10.535156 20.972656 10.652344 20.703125 10.558594 20.460938 C 10.464844 20.222656 10.195312 20.101562 9.957031 20.195312 C 9.59375 20.335938 9.277344 20.566406 9.035156 20.863281 L 7.125 19.867188 L 7.394531 19.351562 C 7.515625 19.125 7.425781 18.84375 7.199219 18.726562 C 6.96875 18.605469 6.6875 18.695312 6.570312 18.921875 L 6.085938 19.851562 C 6.027344 19.960938 6.015625 20.085938 6.054688 20.203125 C 6.089844 20.324219 6.171875 20.421875 6.28125 20.476562 Z M 6.28125 20.476562 " fill-opacity="1" fill-rule="nonzero"/></g><path fill="#eb3f56" d="M 15.273438 23.078125 L 14.847656 23.894531 L 14.625 23.777344 C 14.394531 23.660156 14.113281 23.746094 13.996094 23.976562 C 13.878906 24.203125 13.964844 24.484375 14.195312 24.605469 L 14.828125 24.933594 C 14.894531 24.96875 14.96875 24.988281 15.042969 24.988281 C 15.089844 24.988281 15.140625 24.980469 15.183594 24.964844 C 15.300781 24.929688 15.402344 24.847656 15.457031 24.738281 L 16.097656 23.507812 C 16.21875 23.277344 16.128906 22.996094 15.902344 22.878906 C 15.675781 22.761719 15.390625 22.847656 15.273438 23.078125 Z M 15.273438 23.078125 " fill-opacity="1" fill-rule="nonzero"/><path fill="#eb3f56" d="M 14.34375 8.992188 C 14.171875 8.902344 13.960938 8.96875 13.871094 9.140625 C 13.78125 9.308594 13.851562 9.519531 14.019531 9.609375 L 14.28125 9.746094 C 14.332031 9.773438 14.386719 9.785156 14.441406 9.785156 C 14.570312 9.785156 14.691406 9.71875 14.753906 9.597656 C 14.839844 9.425781 14.777344 9.214844 14.605469 9.125 Z M 14.34375 8.992188 " fill-opacity="1" fill-rule="nonzero"/><g clip-path="url(#25140c5cbf)"><path fill="#122342" d="M 7.410156 18.9375 C 7.566406 19.144531 7.855469 19.1875 8.0625 19.035156 C 8.292969 18.863281 8.5625 18.773438 8.847656 18.773438 C 9.269531 18.773438 9.65625 18.96875 9.90625 19.308594 C 10.339844 19.890625 10.21875 20.71875 9.632812 21.152344 C 9.429688 21.304688 9.382812 21.597656 9.539062 21.800781 L 11.347656 24.238281 C 11.4375 24.363281 11.578125 24.429688 11.722656 24.429688 C 11.816406 24.429688 11.914062 24.398438 12 24.335938 L 26.078125 13.882812 C 26.285156 13.730469 26.328125 13.4375 26.175781 13.234375 L 24.367188 10.796875 C 24.292969 10.695312 24.183594 10.628906 24.058594 10.613281 C 23.9375 10.59375 23.8125 10.625 23.714844 10.699219 C 23.484375 10.867188 23.214844 10.957031 22.929688 10.957031 C 22.507812 10.957031 22.121094 10.765625 21.871094 10.425781 C 21.660156 10.144531 21.574219 9.796875 21.625 9.449219 C 21.675781 9.101562 21.859375 8.792969 22.144531 8.582031 C 22.242188 8.507812 22.308594 8.398438 22.328125 8.277344 C 22.34375 8.15625 22.3125 8.03125 22.238281 7.929688 L 20.429688 5.492188 C 20.277344 5.289062 19.984375 5.242188 19.777344 5.398438 L 5.699219 15.847656 C 5.597656 15.921875 5.535156 16.03125 5.515625 16.15625 C 5.496094 16.277344 5.527344 16.402344 5.601562 16.5 Z M 16.492188 8.996094 L 16.628906 9.183594 C 16.699219 9.277344 16.804688 9.328125 16.910156 9.328125 C 16.980469 9.328125 17.054688 9.304688 17.117188 9.257812 C 17.273438 9.140625 17.304688 8.921875 17.191406 8.769531 L 17.050781 8.582031 L 19.960938 6.421875 L 21.242188 8.152344 C 20.957031 8.472656 20.769531 8.875 20.703125 9.3125 C 20.613281 9.90625 20.765625 10.5 21.121094 10.980469 C 21.542969 11.550781 22.21875 11.890625 22.929688 11.890625 C 23.257812 11.890625 23.574219 11.820312 23.867188 11.6875 L 25.148438 13.414062 L 22.242188 15.574219 L 22.101562 15.386719 C 21.988281 15.230469 21.769531 15.199219 21.613281 15.3125 C 21.457031 15.429688 21.425781 15.648438 21.542969 15.800781 L 21.679688 15.988281 L 11.816406 23.308594 L 10.535156 21.582031 C 11.222656 20.804688 11.300781 19.621094 10.65625 18.75 C 10.234375 18.183594 9.558594 17.84375 8.847656 17.84375 C 8.519531 17.84375 8.203125 17.914062 7.910156 18.046875 L 6.628906 16.320312 Z M 16.492188 8.996094 " fill-opacity="1" fill-rule="nonzero"/></g><path fill="#122342" d="M 20.558594 14.480469 C 20.628906 14.570312 20.734375 14.621094 20.839844 14.621094 C 20.910156 14.621094 20.984375 14.597656 21.046875 14.550781 C 21.203125 14.4375 21.234375 14.21875 21.121094 14.0625 L 20.136719 12.738281 C 20.023438 12.585938 19.804688 12.550781 19.648438 12.667969 C 19.492188 12.78125 19.460938 13 19.578125 13.15625 Z M 20.558594 14.480469 " fill-opacity="1" fill-rule="nonzero"/><path fill="#122342" d="M 18.59375 11.832031 C 18.664062 11.925781 18.769531 11.972656 18.875 11.972656 C 18.945312 11.972656 19.019531 11.949219 19.082031 11.902344 C 19.238281 11.789062 19.269531 11.570312 19.15625 11.414062 L 18.171875 10.09375 C 18.058594 9.9375 17.839844 9.90625 17.683594 10.019531 C 17.527344 10.136719 17.496094 10.355469 17.613281 10.507812 Z M 18.59375 11.832031 " fill-opacity="1" fill-rule="nonzero"/><g clip-path="url(#1b2617b923)"><path fill="#122342" d="M 9.554688 12.40625 C 9.621094 12.445312 9.695312 12.460938 9.769531 12.460938 C 9.9375 12.460938 10.097656 12.371094 10.183594 12.210938 L 12.082031 8.570312 L 12.238281 8.652344 C 12.289062 8.679688 12.34375 8.691406 12.398438 8.691406 C 12.523438 8.691406 12.644531 8.625 12.707031 8.503906 C 12.796875 8.332031 12.730469 8.121094 12.558594 8.03125 L 12.402344 7.949219 L 14.078125 4.738281 L 15.988281 5.734375 C 15.867188 6.15625 15.875 6.601562 16.011719 7.027344 C 16.089844 7.269531 16.351562 7.40625 16.597656 7.328125 C 16.84375 7.25 16.976562 6.988281 16.898438 6.742188 C 16.789062 6.402344 16.820312 6.042969 16.984375 5.730469 C 17.105469 5.503906 17.015625 5.21875 16.789062 5.101562 L 14.097656 3.699219 C 13.988281 3.640625 13.859375 3.628906 13.742188 3.667969 C 13.625 3.703125 13.523438 3.785156 13.46875 3.894531 L 9.355469 11.78125 C 9.238281 12.007812 9.324219 12.289062 9.554688 12.40625 Z M 9.554688 12.40625 " fill-opacity="1" fill-rule="nonzero"/></g><g clip-path="url(#ebcf85d1bc)"><path fill="#122342" d="M 5.558594 20.070312 L 8.25 21.476562 C 8.316406 21.511719 8.390625 21.527344 8.464844 21.527344 C 8.511719 21.527344 8.558594 21.519531 8.605469 21.507812 C 8.722656 21.46875 8.820312 21.386719 8.878906 21.277344 C 9.023438 20.996094 9.269531 20.773438 9.566406 20.660156 C 9.808594 20.566406 9.925781 20.296875 9.832031 20.054688 C 9.742188 19.816406 9.46875 19.699219 9.230469 19.789062 C 8.871094 19.929688 8.554688 20.160156 8.308594 20.457031 L 6.402344 19.460938 L 6.667969 18.945312 C 6.789062 18.71875 6.699219 18.4375 6.472656 18.320312 C 6.242188 18.199219 5.960938 18.289062 5.84375 18.515625 L 5.359375 19.445312 C 5.300781 19.554688 5.292969 19.679688 5.328125 19.796875 C 5.363281 19.917969 5.449219 20.015625 5.558594 20.070312 Z M 5.558594 20.070312 " fill-opacity="1" fill-rule="nonzero"/></g><g clip-path="url(#88971653ff)"><path fill="#122342" d="M 14.546875 22.671875 L 14.121094 23.488281 L 13.898438 23.371094 C 13.667969 23.253906 13.390625 23.339844 13.269531 23.570312 C 13.152344 23.796875 13.238281 24.078125 13.46875 24.199219 L 14.101562 24.527344 C 14.171875 24.5625 14.246094 24.582031 14.320312 24.582031 C 14.367188 24.582031 14.414062 24.574219 14.457031 24.558594 C 14.578125 24.523438 14.675781 24.441406 14.730469 24.332031 L 15.375 23.101562 C 15.492188 22.875 15.402344 22.59375 15.175781 22.472656 C 14.949219 22.355469 14.667969 22.441406 14.546875 22.671875 Z M 14.546875 22.671875 " fill-opacity="1" fill-rule="nonzero"/></g><path fill="#122342" d="M 13.617188 8.585938 C 13.445312 8.496094 13.234375 8.5625 13.144531 8.734375 C 13.058594 8.902344 13.125 9.113281 13.296875 9.203125 L 13.554688 9.339844 C 13.605469 9.367188 13.664062 9.378906 13.714844 9.378906 C 13.84375 9.378906 13.964844 9.3125 14.027344 9.191406 C 14.117188 9.019531 14.050781 8.808594 13.878906 8.71875 Z M 13.617188 8.585938 " fill-opacity="1" fill-rule="nonzero"/><g fill="#122342" fill-opacity="1"><g transform="translate(12.586637, 19.062361)"><g><path d="M -0.421875 -2.578125 L -0.484375 -2.6875 C -0.535156 -2.75 -0.59375 -2.789062 -0.65625 -2.8125 C -0.726562 -2.832031 -0.800781 -2.816406 -0.875 -2.765625 C -0.90625 -2.742188 -0.929688 -2.710938 -0.953125 -2.671875 C -0.972656 -2.640625 -0.976562 -2.597656 -0.96875 -2.546875 C -0.96875 -2.492188 -0.941406 -2.4375 -0.890625 -2.375 C -0.847656 -2.3125 -0.796875 -2.269531 -0.734375 -2.25 C -0.679688 -2.226562 -0.617188 -2.210938 -0.546875 -2.203125 C -0.484375 -2.203125 -0.410156 -2.203125 -0.328125 -2.203125 C -0.191406 -2.191406 -0.0625 -2.179688 0.0625 -2.171875 C 0.195312 -2.160156 0.316406 -2.140625 0.421875 -2.109375 C 0.535156 -2.085938 0.640625 -2.046875 0.734375 -1.984375 C 0.835938 -1.921875 0.9375 -1.828125 1.03125 -1.703125 C 1.09375 -1.617188 1.132812 -1.519531 1.15625 -1.40625 C 1.175781 -1.300781 1.175781 -1.191406 1.15625 -1.078125 C 1.144531 -0.972656 1.109375 -0.875 1.046875 -0.78125 C 0.984375 -0.6875 0.898438 -0.601562 0.796875 -0.53125 C 0.679688 -0.445312 0.566406 -0.390625 0.453125 -0.359375 C 0.335938 -0.335938 0.226562 -0.335938 0.125 -0.359375 C 0.03125 -0.378906 -0.0625 -0.414062 -0.15625 -0.46875 C -0.25 -0.53125 -0.328125 -0.609375 -0.390625 -0.703125 L -0.46875 -0.8125 C -0.488281 -0.84375 -0.5 -0.863281 -0.5 -0.875 C -0.507812 -0.894531 -0.5 -0.910156 -0.46875 -0.921875 L -0.109375 -1.1875 C -0.0859375 -1.207031 -0.0664062 -1.21875 -0.046875 -1.21875 C -0.0351562 -1.21875 -0.015625 -1.195312 0.015625 -1.15625 L 0.078125 -1.078125 C 0.117188 -1.015625 0.160156 -0.972656 0.203125 -0.953125 C 0.253906 -0.929688 0.300781 -0.925781 0.34375 -0.9375 C 0.394531 -0.945312 0.4375 -0.960938 0.46875 -0.984375 C 0.53125 -1.023438 0.566406 -1.082031 0.578125 -1.15625 C 0.585938 -1.226562 0.566406 -1.296875 0.515625 -1.359375 C 0.460938 -1.429688 0.410156 -1.476562 0.359375 -1.5 C 0.304688 -1.53125 0.238281 -1.550781 0.15625 -1.5625 C 0.0703125 -1.570312 -0.03125 -1.582031 -0.15625 -1.59375 C -0.320312 -1.601562 -0.457031 -1.613281 -0.5625 -1.625 C -0.675781 -1.632812 -0.78125 -1.648438 -0.875 -1.671875 C -0.96875 -1.703125 -1.050781 -1.742188 -1.125 -1.796875 C -1.207031 -1.859375 -1.289062 -1.945312 -1.375 -2.0625 C -1.445312 -2.15625 -1.492188 -2.25 -1.515625 -2.34375 C -1.546875 -2.445312 -1.554688 -2.539062 -1.546875 -2.625 C -1.535156 -2.71875 -1.507812 -2.800781 -1.46875 -2.875 C -1.4375 -2.957031 -1.394531 -3.023438 -1.34375 -3.078125 C -1.300781 -3.140625 -1.253906 -3.191406 -1.203125 -3.234375 C -1.066406 -3.335938 -0.925781 -3.394531 -0.78125 -3.40625 C -0.632812 -3.425781 -0.492188 -3.40625 -0.359375 -3.34375 C -0.222656 -3.28125 -0.101562 -3.175781 0 -3.03125 L 0.0625 -2.921875 C 0.0820312 -2.898438 0.09375 -2.878906 0.09375 -2.859375 C 0.09375 -2.835938 0.078125 -2.820312 0.046875 -2.8125 L -0.296875 -2.5625 C -0.316406 -2.539062 -0.335938 -2.53125 -0.359375 -2.53125 C -0.378906 -2.539062 -0.398438 -2.554688 -0.421875 -2.578125 Z M -0.421875 -2.578125 "/></g></g></g><g fill="#122342" fill-opacity="1"><g transform="translate(14.216115, 17.875443)"><g><path d="M 0.515625 -1.4375 L 0.359375 -1.65625 C 0.296875 -1.738281 0.226562 -1.78125 0.15625 -1.78125 C 0.0820312 -1.789062 0.015625 -1.773438 -0.046875 -1.734375 L -0.234375 -1.59375 L 0.28125 -0.890625 L 0.484375 -1.046875 C 0.523438 -1.078125 0.550781 -1.113281 0.5625 -1.15625 C 0.570312 -1.207031 0.570312 -1.253906 0.5625 -1.296875 C 0.5625 -1.347656 0.546875 -1.394531 0.515625 -1.4375 Z M -0.28125 -2.5 L -0.421875 -2.6875 C -0.484375 -2.769531 -0.546875 -2.8125 -0.609375 -2.8125 C -0.679688 -2.820312 -0.75 -2.804688 -0.8125 -2.765625 L -0.984375 -2.625 L -0.53125 -2 L -0.359375 -2.140625 C -0.328125 -2.148438 -0.296875 -2.171875 -0.265625 -2.203125 C -0.242188 -2.242188 -0.226562 -2.289062 -0.21875 -2.34375 C -0.21875 -2.394531 -0.238281 -2.445312 -0.28125 -2.5 Z M 0.046875 -3.0625 L 0.171875 -2.875 C 0.222656 -2.800781 0.253906 -2.722656 0.265625 -2.640625 C 0.285156 -2.554688 0.285156 -2.476562 0.265625 -2.40625 C 0.253906 -2.34375 0.234375 -2.289062 0.203125 -2.25 C 0.222656 -2.257812 0.257812 -2.265625 0.3125 -2.265625 C 0.375 -2.265625 0.4375 -2.257812 0.5 -2.25 C 0.5625 -2.238281 0.628906 -2.207031 0.703125 -2.15625 C 0.773438 -2.113281 0.835938 -2.054688 0.890625 -1.984375 L 1.078125 -1.734375 C 1.140625 -1.648438 1.179688 -1.550781 1.203125 -1.4375 C 1.222656 -1.332031 1.222656 -1.234375 1.203125 -1.140625 C 1.179688 -1.046875 1.140625 -0.953125 1.078125 -0.859375 C 1.023438 -0.773438 0.957031 -0.703125 0.875 -0.640625 L 0.203125 -0.140625 C 0.160156 -0.109375 0.117188 -0.117188 0.078125 -0.171875 L -1.734375 -2.671875 C -1.765625 -2.710938 -1.757812 -2.75 -1.71875 -2.78125 L -1.109375 -3.234375 C -0.972656 -3.328125 -0.832031 -3.378906 -0.6875 -3.390625 C -0.550781 -3.410156 -0.414062 -3.390625 -0.28125 -3.328125 C -0.15625 -3.273438 -0.046875 -3.1875 0.046875 -3.0625 Z M 0.046875 -3.0625 "/></g></g></g><g fill="#122342" fill-opacity="1"><g transform="translate(15.885696, 16.659312)"><g><path d="M -0.828125 -2.453125 L -0.15625 -1.53125 L 0.25 -1.828125 L -0.421875 -2.75 C -0.460938 -2.800781 -0.515625 -2.835938 -0.578125 -2.859375 C -0.648438 -2.890625 -0.722656 -2.878906 -0.796875 -2.828125 C -0.859375 -2.773438 -0.890625 -2.710938 -0.890625 -2.640625 C -0.890625 -2.566406 -0.867188 -2.503906 -0.828125 -2.453125 Z M 0.078125 -3.140625 L 1.484375 -1.203125 C 1.503906 -1.179688 1.515625 -1.160156 1.515625 -1.140625 C 1.515625 -1.117188 1.503906 -1.097656 1.484375 -1.078125 L 1.09375 -0.796875 C 1.082031 -0.785156 1.0625 -0.78125 1.03125 -0.78125 C 1.007812 -0.789062 0.988281 -0.804688 0.96875 -0.828125 L 0.578125 -1.375 L 0.171875 -1.078125 L 0.5625 -0.53125 C 0.582031 -0.5 0.59375 -0.472656 0.59375 -0.453125 C 0.601562 -0.441406 0.59375 -0.425781 0.5625 -0.40625 L 0.171875 -0.125 C 0.160156 -0.113281 0.144531 -0.109375 0.125 -0.109375 C 0.101562 -0.117188 0.0820312 -0.140625 0.0625 -0.171875 L -1.34375 -2.109375 C -1.414062 -2.203125 -1.460938 -2.300781 -1.484375 -2.40625 C -1.503906 -2.519531 -1.503906 -2.628906 -1.484375 -2.734375 C -1.472656 -2.847656 -1.429688 -2.953125 -1.359375 -3.046875 C -1.296875 -3.140625 -1.21875 -3.222656 -1.125 -3.296875 C -1.03125 -3.359375 -0.925781 -3.40625 -0.8125 -3.4375 C -0.707031 -3.476562 -0.597656 -3.488281 -0.484375 -3.46875 C -0.367188 -3.457031 -0.265625 -3.421875 -0.171875 -3.359375 C -0.078125 -3.304688 0.00390625 -3.234375 0.078125 -3.140625 Z M 0.078125 -3.140625 "/></g></g></g><g fill="#122342" fill-opacity="1"><g transform="translate(17.654584, 15.370847)"><g><path d="M 0.28125 -1.828125 L 0.984375 -0.84375 C 1.023438 -0.789062 1.03125 -0.753906 1 -0.734375 L 0.59375 -0.4375 C 0.5625 -0.40625 0.523438 -0.414062 0.484375 -0.46875 L -0.21875 -1.453125 C -0.34375 -1.421875 -0.457031 -1.40625 -0.5625 -1.40625 C -0.675781 -1.414062 -0.78125 -1.445312 -0.875 -1.5 C -0.976562 -1.5625 -1.070312 -1.644531 -1.15625 -1.75 L -1.796875 -2.671875 C -1.804688 -2.679688 -1.8125 -2.691406 -1.8125 -2.703125 C -1.820312 -2.710938 -1.816406 -2.722656 -1.796875 -2.734375 L -1.375 -3.03125 C -1.363281 -3.039062 -1.347656 -3.046875 -1.328125 -3.046875 C -1.316406 -3.054688 -1.304688 -3.054688 -1.296875 -3.046875 L -0.65625 -2.15625 C -0.613281 -2.09375 -0.554688 -2.046875 -0.484375 -2.015625 C -0.421875 -1.992188 -0.351562 -2.007812 -0.28125 -2.0625 C -0.21875 -2.113281 -0.179688 -2.171875 -0.171875 -2.234375 C -0.171875 -2.304688 -0.191406 -2.375 -0.234375 -2.4375 L -0.890625 -3.34375 C -0.898438 -3.351562 -0.90625 -3.363281 -0.90625 -3.375 C -0.90625 -3.382812 -0.898438 -3.390625 -0.890625 -3.390625 L -0.453125 -3.703125 C -0.429688 -3.722656 -0.410156 -3.722656 -0.390625 -3.703125 L 0.265625 -2.78125 C 0.347656 -2.675781 0.398438 -2.566406 0.421875 -2.453125 C 0.453125 -2.347656 0.445312 -2.238281 0.40625 -2.125 C 0.375 -2.019531 0.332031 -1.921875 0.28125 -1.828125 Z M 0.28125 -1.828125 "/></g></g></g></svg>