<svg width="17" height="16" viewBox="0 0 17 16" fill="none" xmlns="http://www.w3.org/2000/svg"><g clip-path="url(#a)"><path d="M12.5 8.667H9.167V12c0 .367-.3.667-.667.667A.669.669 0 0 1 7.833 12V8.667H4.5A.669.669 0 0 1 3.833 8c0-.367.3-.667.667-.667h3.333V4c0-.367.3-.667.667-.667.367 0 .667.3.667.667v3.333H12.5c.367 0 .667.3.667.667 0 .367-.3.667-.667.667z" fill="#2474E5"></path></g><defs><clipPath id="a"><path fill="#fff" transform="translate(.5)" d="M0 0h16v16H0z"></path></clipPath></defs></svg>
                               